<svg id="fi-rs-shopping-cart" xmlns="http://www.w3.org/2000/svg" xmlns:xlink="http://www.w3.org/1999/xlink" width="24" height="24" viewBox="0 0 24 24">
  <defs>
    <clipPath id="clip-path">
      <rect id="fi-rs-shopping-cart_Background_Mask_" data-name="fi-rs-shopping-cart (Background/Mask)" width="24" height="24" fill="none"/>
    </clipPath>
  </defs>
  <rect id="fi-rs-shopping-cart_Background_Mask_2" data-name="fi-rs-shopping-cart (Background/Mask)" width="24" height="24" fill="none"/>
  <g id="fi-rs-shopping-cart-2" data-name="fi-rs-shopping-cart" clip-path="url(#clip-path)">
    <g id="_01_align_center" data-name="01 align center">
      <path id="Vector" d="M6.778,19A3,3,0,0,1,3.8,16.351L2.215,2.883A1,1,0,0,0,1.222,2H0V0H1.222A3,3,0,0,1,4.2,2.649L4.242,3H24L21.836,15H5.654l.131,1.116A1,1,0,0,0,6.778,17H20v2Z" fill="#1d3e73"/>
      <path id="Vector-2" data-name="Vector" d="M2,4A2,2,0,1,1,4,2,2,2,0,0,1,2,4Z" transform="translate(5 20)" fill="#1d3e73"/>
      <path id="Vector-3" data-name="Vector" d="M2,4A2,2,0,1,1,4,2,2,2,0,0,1,2,4Z" transform="translate(15 20)" fill="#1d3e73"/>
    </g>
  </g>
</svg>
